<?xml version="1.0" encoding="utf-8"?>
<!-- Generator: Adobe Illustrator 27.4.0, SVG Export Plug-In . SVG Version: 6.00 Build 0)  -->
<svg version="1.1" id="Layer_1" xmlns="http://www.w3.org/2000/svg" xmlns:xlink="http://www.w3.org/1999/xlink" x="0px" y="0px"
	 viewBox="0 0 106.1 83.7" style="enable-background:new 0 0 106.1 83.7;" xml:space="preserve">
<style type="text/css">
	.st0{fill:#F8EAE0;}
</style>
<g id="logo--dark" transform="translate(-620.479 -259.857)">
	<g id="Group_40042" transform="translate(620.479 259.857)">
		<g id="Group_39975" transform="translate(51.535 33.076)">
			<g id="Group_39974">
				<path id="Path_34235" class="st0" d="M22.3,0.5c7.4,0.3,13.8,5,16.2,12c1,3.1,1.2,6.5,0.5,9.7c-0.9,4.4-2.3,8.7-4.2,12.7
					c-0.1,0.2-0.2,0.4-0.3,0.6c-0.2,0.2-0.4,0.4-0.6,0.3s-0.2-0.5-0.1-0.7c0.5-1.2,1.1-2.4,1.5-3.6c1.7-3.9,2.8-8.1,3.1-12.4
					c0.5-6.3-2.7-12.3-8.2-15.5C22.5-1,12.3,1.4,7.4,9c-1.2,1.9-2.1,4.1-2.4,6.3c-0.5,2.9-1.7,5.7-3.5,8c-0.1,0.1-0.2,0.3-0.3,0.4
					c-0.2,0.1-0.4,0.1-0.6,0.1c0-0.2-0.1-0.5,0-0.6c0.3-0.6,0.8-1.1,1.1-1.6c1.3-2.1,2.2-4.5,2.6-7C6,6.1,13.6,0.1,22.3,0.5z"/>
				<path id="Path_34236" class="st0" d="M34,36.2c-0.1,0-0.2,0-0.3-0.1c-0.4-0.3-0.5-0.8-0.3-1.2c0.2-0.5,0.5-1.1,0.7-1.6
					c0.3-0.6,0.6-1.3,0.8-1.9c1.7-3.9,2.7-8,3.1-12.2c0.5-6.1-2.6-12-8-15C22.4-0.5,12.6,1.8,7.8,9.3c-1.2,1.9-2,3.9-2.4,6.1
					c-0.5,3-1.7,5.8-3.6,8.2c0,0,0,0.1-0.1,0.1c-0.1,0.2-0.2,0.3-0.4,0.4c-0.2,0.1-0.4,0.1-0.6,0.1c-0.1,0-0.1,0-0.2,0
					c-0.1,0-0.2,0-0.2-0.1C0.2,24.1,0.1,24,0,23.8c0,0,0-0.2,0-0.3c0-0.2,0-0.4,0.1-0.6c0.2-0.3,0.4-0.6,0.6-0.9
					c0.2-0.2,0.3-0.5,0.5-0.7c1.3-2.1,2.2-4.4,2.5-6.8C5.6,5.8,13.4-0.3,22.3,0l0,0c3.7,0.1,7.3,1.4,10.2,3.6c3,2.2,5.2,5.2,6.4,8.7
					c1.1,3.2,1.3,6.6,0.5,9.9c-0.9,4.4-2.3,8.7-4.2,12.8c0,0,0,0.1-0.1,0.1c-0.1,0.2-0.2,0.4-0.3,0.5l0,0C34.6,36,34.3,36.2,34,36.2
					z"/>
			</g>
		</g>
		<g id="Group_39977" transform="translate(51.865 37.036)">
			<g id="Group_39976">
				<path id="Path_34237" class="st0" d="M21.7,0.5c6.8,0.5,11.5,3.9,14,10.2c1.1,3,1.2,6.3,0.4,9.4c-1,4.6-2.6,9.1-4.8,13.3
					c-0.5,1-1.1,1.9-1.6,2.8c-0.1,0.2-0.4,0.4-0.6,0.3c-0.2-0.1-0.2-0.6-0.1-0.7c1.3-2.7,2.8-5.3,4-8.1c1.5-3.4,2.5-7.1,2.8-10.8
					c0.5-5.4-2.2-10.6-6.8-13.4C22-0.7,13.1,1.4,9,8.2c-1,1.6-1.6,3.4-2,5.2c-0.7,4-2.6,7.8-5.5,10.7c-0.1,0.1-0.2,0.2-0.3,0.3
					c-0.2,0.1-0.6,0.3-0.8,0.1s0.1-0.6,0.2-0.7c1.9-1.8,3.4-4,4.3-6.5c0.7-1.8,1.1-3.7,1.5-5.6c1.6-5.8,6.6-10.2,12.6-11
					C20,0.6,20.9,0.5,21.7,0.5z"/>
				<path id="Path_34238" class="st0" d="M29.1,37c-0.1,0-0.2,0-0.3-0.1c-0.4-0.3-0.5-0.9-0.3-1.3c0.5-0.9,0.9-1.9,1.4-2.8
					c0.9-1.7,1.8-3.5,2.5-5.2c1.5-3.4,2.4-7,2.7-10.7c0.5-5.2-2.1-10.3-6.6-12.9c-5.6-3.5-13-2.5-17.5,2.3c-1.9,2-3.2,4.6-3.6,7.3
					c-0.7,4.1-2.7,7.9-5.6,10.9c0,0,0,0-0.1,0.1c-0.1,0.2-0.3,0.3-0.4,0.3c0,0-0.1,0-0.2,0.1C1,25,0.5,25.2,0.2,24.8
					c-0.4-0.4-0.1-1,0.2-1.3c1.8-1.8,3.3-3.9,4.2-6.3c0.5-1.4,0.9-2.9,1.2-4.3C5.9,12.4,6,12,6.1,11.6c1.7-6,6.8-10.5,13-11.4
					c0.6-0.1,1.2-0.1,1.8-0.1c0.3,0,0.5,0,0.8-0.1h0h0c7,0.6,11.8,4.1,14.4,10.4c1.1,3.1,1.3,6.5,0.4,9.7c-1,4.7-2.6,9.2-4.8,13.5
					c-0.5,1-1.1,1.9-1.7,2.8C29.8,36.7,29.4,37,29.1,37z M32.6,29.3c-0.6,1.3-1.3,2.6-1.9,3.8c-0.3,0.6-0.6,1.2-0.9,1.8
					c0.3-0.6,0.7-1.1,1-1.7C31.5,31.9,32.1,30.6,32.6,29.3L32.6,29.3z M6.3,14.6C6.2,15,6.1,15.4,6,15.8C6.1,15.4,6.2,15,6.3,14.6
					L6.3,14.6z"/>
			</g>
		</g>
		<g id="Group_39979" transform="translate(51.802 28.632)">
			<g id="Group_39978">
				<path id="Path_34239" class="st0" d="M22.4,1.3C15.7,1.1,9.3,4.4,5.6,10c-1.5,2.3-2.5,4.8-3,7.5c-0.3,1.4-0.8,2.7-1.3,4.1
					c-0.1,0.2-0.4,0.7-0.7,0.6s-0.1-0.6,0-0.9c0.5-1.9,1.1-3.8,1.6-5.7C5.1,4.7,16.2-1.7,27,1.2c0.4,0.1,0.9,0.3,1.3,0.4
					c9.1,3.1,14.8,12.2,13.5,21.8c-0.5,3.4-1.3,6.7-2.5,9.9c0,0.1-0.1,0.3-0.1,0.4C39,33.8,38.8,34,38.6,34s-0.2-0.4-0.2-0.5
					c0.1-0.4,0.2-0.7,0.3-1.1c1.2-3.7,2.4-7.5,2.4-11.5c0.2-6.8-3.3-13.1-9.1-16.6C29.1,2.4,25.8,1.4,22.4,1.3z"/>
				<path id="Path_34240" class="st0" d="M38.7,34.4c-0.1,0-0.1,0-0.2,0c-0.4-0.2-0.6-0.6-0.5-1c0.1-0.3,0.1-0.6,0.2-0.9
					c0-0.1,0.1-0.2,0.1-0.2c1.3-4,2.4-7.6,2.4-11.3c0.2-6.6-3.2-12.8-8.9-16.2c-2.8-1.8-6-2.8-9.3-2.9h0C15.8,1.6,9.6,4.8,6,10.2
					C4.5,12.5,3.5,15,3,17.6c-0.3,1.2-0.6,2.4-1.1,3.5c-0.1,0.2-0.1,0.4-0.2,0.6c-0.1,0.4-0.4,0.7-0.8,0.8c-0.2,0.1-0.4,0.1-0.6,0
					c-0.6-0.3-0.4-1-0.3-1.3c0,0,0-0.1,0-0.1c0.2-0.9,0.5-1.8,0.8-2.7c0.3-1,0.6-2,0.9-3c3-11,14.3-17.6,25.3-14.6
					C27.6,0.9,28,1,28.4,1.2c4.5,1.5,8.3,4.5,10.8,8.4c2.6,4.1,3.7,9,3,13.8c-0.5,3.4-1.3,6.8-2.5,10c0,0,0,0.1,0,0.1
					c0,0.2-0.1,0.3-0.2,0.5c0,0,0,0-0.1,0.1C39.2,34.3,39,34.4,38.7,34.4z M2.1,17.5c-0.1,0.4-0.2,0.8-0.3,1.2
					c-0.1,0.3-0.2,0.6-0.3,0.9C1.8,18.9,2,18.2,2.1,17.5L2.1,17.5z"/>
			</g>
		</g>
		<g id="Group_39981" transform="translate(51.729 41.346)">
			<g id="Group_39980">
				<path id="Path_34241" class="st0" d="M33.4,14.6c-0.4,1.9-0.9,4.4-1.7,6.9c-1,2.8-2.1,5.6-3.4,8.3c-1.1,2.1-2.4,4-3.7,5.9
					c-0.1,0.2-0.6,0.4-0.8,0.3c-0.4-0.3-0.1-0.6,0.1-0.8c3.6-4.8,6.2-10.4,7.6-16.2c0.6-2.6,1.2-5.1,0.8-7.8
					C31.2,4.7,25,0.4,18.5,1.5c-0.3,0.1-0.6,0.1-0.9,0.2c-5.1,1.4-8,4.9-8.9,10c-0.9,4.9-3.4,9.4-7.2,12.7c-0.1,0.1-0.2,0.2-0.4,0.3
					c-0.2,0.1-0.5,0.2-0.6,0s0-0.5,0.1-0.7c0.6-0.6,1.2-1.1,1.8-1.8c2.9-3.2,4.9-7.3,5.6-11.6c1.3-6.9,8-11.4,14.9-10
					c1.1,0.2,2.2,0.6,3.2,1.1C31.1,4.3,33.4,8.4,33.4,14.6z"/>
				<path id="Path_34242" class="st0" d="M23.9,36.5c-0.1,0-0.2,0-0.3-0.1c-0.2-0.1-0.4-0.3-0.4-0.6c0-0.3,0.1-0.6,0.3-0.8
					c0,0,0.1-0.1,0.1-0.1c3.5-4.8,6.1-10.2,7.6-16c0.6-2.4,1.2-5,0.8-7.6c-0.6-3.2-2.5-6-5.2-7.7c-2.7-1.7-5.9-2.2-9-1.4
					c-4.7,1.3-7.6,4.5-8.6,9.6c-0.9,5-3.5,9.6-7.3,13c0,0,0,0-0.1,0.1c-0.1,0.2-0.3,0.3-0.5,0.3c0,0-0.1,0-0.1,0
					c-0.3,0.2-0.7,0.1-1-0.1c-0.3-0.4-0.2-0.9,0.1-1.3c0.3-0.3,0.6-0.6,0.9-0.9c0.3-0.3,0.6-0.6,0.9-0.9c2.9-3.2,4.8-7.1,5.5-11.3
					C9,3.5,15.9-1.1,23.1,0.3c1.2,0.2,2.3,0.6,3.3,1.1c5,2.5,7.4,6.8,7.5,13.2v0.1l0,0.1c-0.1,0.5-0.2,1.1-0.4,1.7
					c-0.3,1.7-0.8,3.5-1.3,5.2c-1,2.9-2.1,5.7-3.5,8.4c-0.8,1.6-1.7,3.1-2.8,4.5c-0.3,0.5-0.7,1-1,1.5c-0.2,0.3-0.5,0.5-0.9,0.5
					C24,36.5,24,36.5,23.9,36.5z M32.9,14.2c0,0.2,0,0.4-0.1,0.6c0-0.1,0-0.2,0.1-0.2C32.9,14.4,32.9,14.3,32.9,14.2L32.9,14.2z"/>
			</g>
		</g>
		<g id="Group_39983" transform="translate(52.156 44.701)">
			<g id="Group_39982">
				<path id="Path_34243" class="st0" d="M20,0.5c5.7,0.2,10.2,4.9,10,10.6c0,0.7-0.1,1.3-0.2,2c-0.8,4.4-2.3,8.6-4.3,12.6
					c-1.6,3.1-3.5,5.9-5.8,8.6c-0.1,0.1-0.2,0.2-0.3,0.3c-0.2,0.1-0.5,0.3-0.6,0.1s-0.1-0.5,0-0.7c0.5-0.7,1.1-1.3,1.6-2
					c2.7-3.4,4.9-7.3,6.4-11.4c0.9-2.6,1.6-5.2,2.2-7.9C30,7.5,26.7,2.5,21.6,1.5c-4.6-1-9.2,1.6-10.8,6.1c-0.7,2.1-1.1,4.4-1.8,6.4
					c-1.5,4.1-4.1,7.7-7.6,10.4c-0.2,0.2-0.7,0.4-0.9,0.1c-0.2-0.2,0.1-0.6,0.3-0.8c4.6-3.8,7.7-9.1,8.7-15.1
					C10.5,3.8,14.9,0.3,20,0.5z"/>
				<path id="Path_34244" class="st0" d="M18.9,35.1c-0.2,0-0.3-0.1-0.4-0.1c-0.3-0.4-0.4-0.9-0.1-1.3c0.3-0.4,0.7-0.8,1-1.2
					c0.2-0.2,0.4-0.5,0.6-0.7c2.7-3.4,4.8-7.2,6.3-11.3c0.9-2.6,1.6-5.2,2.1-7.8c0.9-4-1.1-8.1-4.7-9.8c-4.4-2.3-9.8-0.6-12,3.8
					c-0.2,0.4-0.4,0.8-0.5,1.2c-0.3,1-0.6,2-0.8,3c-0.3,1.1-0.6,2.3-1,3.4c-1.5,4.2-4.2,7.9-7.7,10.6c-0.3,0.2-0.7,0.4-1,0.3
					c-0.2,0-0.4-0.1-0.5-0.3c-0.3-0.4,0-1,0.4-1.4c4.5-3.7,7.6-9,8.5-14.8c1-5.2,5.6-8.9,10.9-8.7c3.1,0.1,6.1,1.5,8,4
					c2,2.6,2.8,5.9,2.2,9.2c-0.8,4.4-2.3,8.7-4.3,12.7c-1.6,3.1-3.6,6-5.8,8.6c0,0,0,0,0,0.1c-0.1,0.2-0.2,0.3-0.4,0.3
					c0,0-0.1,0-0.1,0C19.3,35,19.1,35.1,18.9,35.1z"/>
			</g>
		</g>
		<g id="Group_39985" transform="translate(52.134 48.704)">
			<g id="Group_39984">
				<path id="Path_34245" class="st0" d="M19.5,1.3C16,1.1,13,3.5,12.3,6.9c-0.5,3-1.5,5.9-2.9,8.6c-1.8,3.4-4.3,6.4-7.4,8.8
					c-0.2,0.1-1.4,0.5-1.5,0.3s0.9-0.7,1.1-0.9c3.1-2.5,5.6-5.6,7.4-9.1c1.2-2.5,2.1-5.2,2.6-8c0.7-3.1,3.2-5.5,6.3-6
					c3-0.5,6,0.8,7.8,3.3c1.3,1.9,1.7,4.3,1.1,6.5c-1.5,8.2-5.5,15.8-11.3,21.8c-0.2,0.2-2.8,2.5-3,2.2s2.2-2.6,2.4-2.8
					c3.5-3.6,6.3-7.7,8.3-12.3c1.5-3.2,2.5-6.7,3-10.2c0.5-3.8-2.3-7.3-6.1-7.8C19.9,1.3,19.7,1.3,19.5,1.3z"/>
				<path id="Path_34246" class="st0" d="M12.6,34.8L12.6,34.8c-0.1,0-0.3-0.1-0.4-0.2c-0.4-0.4,0-0.9,0.9-1.9
					c0.6-0.6,1.2-1.3,1.4-1.5l0.1-0.1c3.4-3.5,6.2-7.6,8.2-12.1c1.4-3.2,2.4-6.6,3-10.1c0.2-1.8-0.3-3.5-1.4-4.9
					c-1.2-1.4-2.9-2.3-4.8-2.4c-3.2-0.2-6.1,2.1-6.7,5.2c-0.5,3-1.5,6-3,8.7c-1.8,3.5-4.4,6.5-7.6,9c-0.5,0.3-1.1,0.4-1.7,0.4
					c-0.2,0-0.3-0.1-0.5-0.3C0,24.7,0,24.5,0,24.4c0.1-0.3,0.4-0.6,1-1c0.1,0,0.2-0.1,0.2-0.1c3.1-2.4,5.6-5.5,7.3-8.9
					c1.2-2.5,2.1-5.2,2.6-7.9c0.7-3.3,3.4-5.8,6.7-6.3C21-0.4,24.2,1,26.1,3.6c1.3,2,1.8,4.5,1.2,6.8c-1.6,8.3-5.6,15.9-11.4,22
					c-0.1,0.1-0.8,0.7-1.4,1.2C13,34.8,12.7,34.8,12.6,34.8z"/>
			</g>
		</g>
		<g id="Group_39987" transform="translate(52.278 52.259)">
			<g id="Group_39986">
				<path id="Path_34247" class="st0" d="M18.8,0.5c3,0.2,5.3,2.7,5.1,5.7c0,0.4-0.1,0.7-0.2,1c-1.5,8.4-5.7,16-11.9,21.9
					c-0.3,0.3-1.5,1.9-2,1.4s1.2-1.7,1.5-2c2.8-2.7,5.2-5.8,7.1-9.1c2.2-3.9,3.7-8.1,4.5-12.4c0.5-2.1-0.5-4.3-2.5-5.2
					c-1.9-0.9-4.1-0.4-5.4,1.3c-0.5,0.6-0.8,1.3-1,2C12.9,12,9.3,18.3,3.9,23c-0.4,0.3-0.8,0.6-1.2,0.9c-0.2,0.1-2,1.7-2.3,0.6
					c-0.1-0.3,1.6-1,1.8-1.2c1.6-1.6,3.3-3,4.7-4.6c3.3-3.9,5.5-8.6,6.3-13.7C13.7,2.2,16.1,0.3,18.8,0.5z"/>
				<path id="Path_34248" class="st0" d="M10.1,31c-0.4,0-0.8-0.3-0.8-0.8c0,0,0,0,0-0.1c0-0.6,0.7-1.3,1.5-1.9
					c0.1-0.1,0.2-0.2,0.2-0.2c2.8-2.7,5.1-5.7,7-9c2.2-3.8,3.7-8,4.4-12.3C23,4.9,22,3,20.3,2.1c-1.7-0.8-3.7-0.4-4.9,1.1
					c-0.4,0.5-0.7,1.2-0.9,1.8c-1.2,7.1-4.9,13.5-10.3,18.2c-0.4,0.4-0.8,0.7-1.3,1c0,0-0.1,0-0.1,0.1c-0.8,0.6-1.6,1.1-2.3,0.9
					c-0.3-0.1-0.5-0.4-0.6-0.7c-0.1-0.5,0.4-0.8,1.5-1.4c0.2-0.1,0.4-0.2,0.5-0.3c0.6-0.5,1.1-1.1,1.7-1.6c1.1-0.9,2.1-1.9,3-3
					c3.2-3.9,5.4-8.5,6.2-13.5c0.5-2.9,3.1-5,6-4.8c1.7,0.1,3.2,0.8,4.2,2.1c1.1,1.5,1.5,3.3,1.2,5.1c-1.6,8.5-5.8,16.2-12,22.1
					c0,0-0.1,0.1-0.2,0.2C11.4,30.3,10.7,31,10.1,31L10.1,31z M10.9,29.5c-0.1,0.1-0.2,0.2-0.3,0.3C10.7,29.7,10.8,29.6,10.9,29.5
					L10.9,29.5z M6,20.3c-0.6,0.6-1.2,1.1-1.8,1.7c-0.4,0.4-0.8,0.8-1.2,1.2c0.2-0.2,0.4-0.3,0.6-0.5C4.5,21.9,5.3,21.1,6,20.3
					L6,20.3z M1.9,22.9L1.9,22.9z"/>
			</g>
		</g>
		<g id="Group_39989" transform="translate(55.582 25.092)">
			<g id="Group_39988">
				<path id="Path_34249" class="st0" d="M40.3,24.6c0-8.4-3-14.9-9.5-19.4c-6.3-4.4-13.2-5.1-20.4-2.4C6.9,4.1,3.9,6.3,1.6,9.1
					C1.5,9.2,1.5,9.3,1.4,9.3C1.2,9.5,0.8,9.9,0.6,9.7s0.1-0.7,0.3-1C7.2,1.6,15-1,24.3,1.3C30.2,2.8,35.2,6.6,38.1,12
					c2.8,4.9,3.7,10.6,2.4,16.1c-0.1,0.7-0.2,1.4-0.4,2C40,30.5,40,31,39.5,30.9c-0.1,0-0.2-0.6-0.2-0.9C39.6,28,40,26,40.3,24.6z"
					/>
				<path id="Path_34250" class="st0" d="M39.6,31.4c-0.1,0-0.2,0-0.3,0c-0.7-0.2-0.5-1.4-0.5-1.5c0.2-1.5,0.5-3.1,0.8-4.3
					c0.1-0.4,0.1-0.7,0.2-1c0-8.4-3.1-14.6-9.3-19c-6.1-4.2-12.8-5-20-2.3C7.2,4.5,4.2,6.7,1.9,9.4l0,0c0,0,0,0,0,0
					C1.9,9.6,1.8,9.7,1.6,9.7c-0.1,0-0.1,0.1-0.2,0.1c-0.2,0.2-0.7,0.6-1.2,0.2C0.1,9.9,0,9.7,0,9.5c0-0.4,0.2-0.8,0.5-1.1
					C7,1,15.1-1.5,24.4,0.8c6,1.5,11.1,5.4,14.1,10.9c2.9,5,3.8,10.9,2.5,16.5c-0.1,0.2-0.1,0.5-0.1,0.7c-0.1,0.4-0.2,0.9-0.3,1.3
					c0,0,0,0.1,0,0.2c0,0.3-0.2,0.6-0.4,0.8C39.9,31.3,39.8,31.4,39.6,31.4z M40,18c0.2,0.9,0.4,1.9,0.5,2.8
					C40.4,19.8,40.2,18.9,40,18L40,18z M29.6,3.9c0.5,0.3,0.9,0.6,1.4,0.9c0.7,0.5,1.4,1.1,2.1,1.6C32.1,5.5,30.9,4.6,29.6,3.9
					L29.6,3.9z M13.1,1.5c-0.7,0.2-1.3,0.4-2,0.6C11.7,1.8,12.4,1.7,13.1,1.5L13.1,1.5z"/>
			</g>
		</g>
		<g id="Group_39991" transform="translate(54.738 55.932)">
			<g id="Group_39990">
				<path id="Path_34251" class="st0" d="M15.5,0.5c1.6,0,2.8,1.3,2.8,2.8c0,0.2,0,0.3,0,0.5c-0.6,3.9-1.9,7.7-3.8,11.2
					c-2.1,4-4.9,7.6-8.3,10.6c-0.1,0.1-0.2,0.3-0.4,0.3c-0.3,0.1-1.1,0.9-1.3,0.6s0.5-1,0.7-1.2c1.8-2,3.8-3.8,5.4-5.9
					c3.3-4.2,5.5-9.2,6.5-14.4c0.1-0.4,0.2-0.8,0.2-1.2c0.2-1.1-0.4-2.2-1.6-2.5c0,0-0.1,0-0.1,0c-1.2-0.2-2.2,0.6-2.4,1.8
					c-0.3,1.5-0.7,3-1.1,4.5c-1.3,4.1-3.4,7.9-6.3,11.1C4.8,20,4.4,20,3.1,21.3c-0.4,0.5-0.8,0.9-1.3,1.3c-0.3,0.1-0.9,1.2-1.3,0.1
					c-0.1-0.3,0.1-0.4,0.4-0.5c0.9-0.6,1.8-1.3,2.7-2.1c4.7-4.6,7.8-10.5,9-17C12.6,1.6,13.9,0.4,15.5,0.5z"/>
				<path id="Path_34252" class="st0" d="M4.6,27c-0.2,0-0.3-0.1-0.4-0.2c-0.4-0.5,0.1-1.2,0.7-1.8l0,0c0.6-0.7,1.3-1.4,1.9-2
					c1.2-1.2,2.4-2.5,3.5-3.9c3.2-4.2,5.4-9.1,6.4-14.2c0-0.1,0.1-0.3,0.1-0.4c0.1-0.3,0.1-0.5,0.1-0.8c0.2-0.9-0.3-1.7-1.2-1.9
					c0,0-0.1,0-0.1,0c-0.9-0.1-1.8,0.5-1.9,1.4c-0.1,0.3-0.1,0.6-0.2,0.9c-0.3,1.2-0.6,2.5-0.9,3.7c-1.3,4.2-3.5,8-6.3,11.3
					c-0.5,0.5-1,1-1.5,1.4c-0.5,0.4-0.9,0.7-1.3,1.2c0,0-0.1,0.1-0.2,0.3C2.8,22.3,2.4,22.7,2,23c0,0-0.1,0.1-0.1,0.1
					c-0.3,0.3-0.7,0.5-1.1,0.5c-0.3-0.1-0.6-0.4-0.7-0.7c-0.1-0.4,0-0.8,0.4-1c0,0,0.1,0,0.1-0.1c0.9-0.6,1.8-1.3,2.6-2
					C7.8,15.3,10.9,9.4,12,3.1c0.2-1.8,1.7-3.1,3.5-3.1l0,0c1,0,1.9,0.5,2.5,1.2c0.6,0.7,0.8,1.7,0.7,2.6c-0.6,4-1.9,7.8-3.8,11.3
					c-2.1,4.1-5,7.7-8.4,10.8c0,0-0.1,0.1-0.1,0.1c-0.1,0.1-0.3,0.2-0.4,0.3c-0.1,0.1-0.2,0.1-0.3,0.2C5.4,26.8,5,27,4.6,27z
					 M10.1,20.8c-0.9,1-1.8,2-2.7,2.9c-0.4,0.4-0.8,0.8-1.2,1.2C7.7,23.6,9,22.2,10.1,20.8L10.1,20.8z M2,23L2,23z M1,22.7L1,22.7
					C1,22.7,1,22.7,1,22.7L1,22.7z"/>
			</g>
		</g>
		<g id="Group_39993" transform="translate(59.506 21.141)">
			<g id="Group_39992">
				<path id="Path_34253" class="st0" d="M15,0.5c11.7,0.4,21.2,7.7,24.2,18c0.7,2.5,1.1,5.2,1.1,7.8c0,0.1,0,0.3,0,0.4
					c-0.1,0.2-0.2,0.5-0.4,0.5c-0.2,0-0.4-0.4-0.4-0.6c-0.1-0.9,0-1.9-0.1-2.8c-0.8-8-4.5-14.4-11.4-18.7c-6.5-4.2-14.6-5-21.7-2
					C4.6,3.8,3,4.6,1.4,5.5C1.2,5.6,0.7,5.7,0.6,5.6C0.2,5.2,0.7,5,1,4.8C5.1,2,10,0.4,15,0.5z"/>
				<path id="Path_34254" class="st0" d="M39.8,27.6L39.8,27.6c-0.6,0-0.8-0.6-0.9-1c0-0.4,0-0.9,0-1.3c0-0.5,0-1-0.1-1.5
					c-0.8-8-4.6-14.2-11.1-18.3C20.4,0.6,10.9,0.5,3.4,5C2.8,5.3,2.2,5.6,1.6,5.9c-0.2,0.1-1,0.4-1.4,0C0.1,5.7,0,5.4,0,5.2
					c0.1-0.3,0.3-0.6,0.6-0.7c0,0,0.1,0,0.1-0.1C4.9,1.5,9.9,0,15,0l0,0c5.6,0.1,11.1,2,15.6,5.4c4.3,3.2,7.5,7.8,9,12.9
					c0.7,2.6,1.1,5.3,1.1,7.9c0,0,0,0,0,0.1c0,0.2,0,0.4-0.1,0.6c0,0,0,0.1-0.1,0.1C40.5,27.2,40.3,27.6,39.8,27.6z M4.2,3.5
					C3.5,3.8,2.9,4.2,2.2,4.6c0.2-0.1,0.5-0.3,0.7-0.4C3.3,3.9,3.7,3.7,4.2,3.5L4.2,3.5z M9.7,1.5C9.1,1.6,8.5,1.8,7.9,2
					C8.5,1.8,9.1,1.6,9.7,1.5L9.7,1.5z"/>
			</g>
		</g>
		<g id="Group_39995" transform="translate(63.318 17.978)">
			<g id="Group_39994">
				<path id="Path_34255" class="st0" d="M12.7,0.5c7.7,0.3,14.9,3.7,19.9,9.5c3.3,3.7,5.5,8.3,6.4,13.2c0.1,0.3,0.1,0.9-0.2,0.9
					s-0.5-0.5-0.6-0.8C35.5,8.7,21.5-0.9,6.9,1.8C5,2.1,3.1,2.7,1.3,3.4c-0.2,0.1-0.7,0.1-0.8,0C0.3,2.9,0.7,2.8,1.1,2.6
					c3-1.3,6.1-2,9.3-2.1C11.3,0.5,12.1,0.5,12.7,0.5z"/>
				<path id="Path_34256" class="st0" d="M38.7,24.6c-0.5,0-0.8-0.4-1-1.2C35.1,9.1,21.3-0.4,7,2.2C5.1,2.6,3.3,3.1,1.5,3.9
					C1.2,4,0.4,4.1,0.1,3.6C0,3.4,0,3.1,0,2.9c0.2-0.3,0.4-0.6,0.8-0.7l0,0c3-1.3,6.2-2,9.5-2.2c0.6,0,1.3,0,1.8,0l0.6,0h0
					c8.3,0.5,15,3.7,20.2,9.7c3.4,3.8,5.6,8.5,6.5,13.5c0.1,0.4,0,0.8-0.2,1.2c-0.1,0.2-0.3,0.3-0.5,0.3
					C38.8,24.6,38.7,24.6,38.7,24.6z"/>
			</g>
		</g>
		<g id="Group_39997" transform="translate(67.885 14.643)">
			<g id="Group_39996">
				<path id="Path_34257" class="st0" d="M9.5,0.5C21.8,1,32.6,8.9,36.8,20.6c0,0.1,0.1,0.2,0.1,0.3c0,0.3,0.1,0.7-0.2,0.8
					s-0.5-0.3-0.6-0.5c-0.5-1.1-0.9-2.3-1.5-3.4c-2.4-4.9-6.1-9-10.7-11.9C17.3,1.7,9.2,0.3,1.5,2.2c-0.1,0-0.3,0.1-0.4,0.1
					c-0.2,0-0.6,0-0.7-0.2s0.3-0.5,0.4-0.5C2.1,1.2,3.4,1,4.6,0.8C6.2,0.6,7.9,0.6,9.5,0.5z"/>
				<path id="Path_34258" class="st0" d="M36.6,22.1c-0.4-0.1-0.8-0.4-0.9-0.8c-0.2-0.5-0.4-1-0.6-1.5c-0.3-0.6-0.5-1.3-0.8-1.9
					c-2.3-4.8-6-8.9-10.5-11.7C17.1,2.1,9.2,0.8,1.6,2.6c0,0,0,0-0.1,0C1.4,2.7,1.2,2.8,1,2.7c0,0-0.1,0-0.1,0
					C0.6,2.7,0.2,2.6,0,2.2C0,2,0,1.8,0.1,1.6c0.2-0.3,0.4-0.4,0.7-0.5L1.3,1c1.1-0.3,2.2-0.5,3.3-0.6C5.7,0.2,6.9,0.1,8,0.1
					C8.5,0.1,9,0,9.5,0h0h0C22,0.5,33,8.6,37.2,20.4c0,0,0,0,0,0c0.1,0.1,0.1,0.3,0.1,0.5c0,0.1,0,0.1,0,0.2c0,0.3,0,0.8-0.5,0.9
					C36.8,22.1,36.7,22.1,36.6,22.1z M9.4,0.9C10.2,1,11,1,11.8,1.1C11,1,10.3,1,9.5,0.9L9.4,0.9z"/>
			</g>
		</g>
		<g id="Group_39999" transform="translate(71.135 10.572)">
			<g id="Group_39998">
				<path id="Path_34259" class="st0" d="M34.1,18.8c0,0.2-0.2,0.3-0.3,0.4c-0.2,0-0.4-0.1-0.5-0.3c-0.3-0.4-0.5-0.9-0.8-1.4
					C26.2,6.4,13.9,0.1,1.2,1.5C1,1.5,0.5,1.5,0.5,1.2s0.4-0.5,0.7-0.5c3-0.4,6-0.3,9,0.2c10.2,1.6,19,8.1,23.7,17.3
					C33.9,18.4,34.1,18.5,34.1,18.8z"/>
				<path id="Path_34260" class="st0" d="M33.7,19.6c-0.3,0-0.7-0.2-0.9-0.5c-0.2-0.3-0.4-0.6-0.6-0.9c-0.1-0.2-0.2-0.3-0.2-0.5
					C25.9,6.8,13.7,0.6,1.2,2c-0.3,0-0.7-0.1-1-0.3C0.1,1.6,0,1.4,0,1.2c-0.1-0.6,0.6-0.9,1.1-1c3-0.4,6.1-0.3,9.1,0.2
					c10.3,1.7,19.3,8.2,24,17.5c0,0,0,0.1,0.1,0.1c0.2,0.2,0.3,0.5,0.2,0.8l0,0C34.4,19.2,34.1,19.5,33.7,19.6L33.7,19.6z"/>
			</g>
		</g>
		<g id="Group_40001" transform="translate(75.564 6.488)">
			<g id="Group_40000">
				<path id="Path_34261" class="st0" d="M3,0.5c5.4,0.3,10.6,1.9,15.2,4.6c4.6,2.6,8.5,6.3,11.5,10.6c0.2,0.3,0.4,0.6,0,0.8
					c-0.1,0.1-0.6-0.2-0.7-0.4c-2.5-3.7-5.8-6.9-9.5-9.3c-3.8-2.5-8-4.2-12.5-5C5.2,1.6,3.2,1.5,1.3,1.3c-0.1,0-0.3,0-0.4,0
					C0.7,1.2,0.5,1,0.5,0.8S0.8,0.5,1,0.5C1.6,0.4,2.3,0.5,3,0.5z"/>
				<path id="Path_34262" class="st0" d="M29.7,17.1c-0.4-0.1-0.8-0.3-1-0.6c-2.5-3.7-5.7-6.8-9.4-9.2C15.5,4.8,11.3,3.1,7,2.3
					C5.7,2.1,4.3,2,3,1.9c-0.6,0-1.2-0.1-1.8-0.2H1.2c-0.2,0-0.4,0-0.5-0.1c0,0-0.1,0-0.1-0.1C0.2,1.5,0,1.2,0,0.8
					C0.1,0.3,0.5,0,0.9,0c0.5,0,1,0,1.5,0c0.2,0,0.4,0,0.6,0h0C8.5,0.4,13.7,2,18.5,4.7c4.6,2.7,8.6,6.4,11.6,10.8
					c0.2,0.3,0.4,0.6,0.3,1c-0.1,0.2-0.2,0.4-0.5,0.5C29.9,17,29.8,17.1,29.7,17.1z"/>
			</g>
		</g>
		<g id="Group_40003" transform="translate(81.326 2.537)">
			<g id="Group_40002">
				<path id="Path_34263" class="st0" d="M1.1,0.5C6.5,0.6,11.3,3,15.8,5.7c3.1,1.9,5.8,4.2,8.2,6.9c0.1,0.1,0.2,0.1,0.2,0.2
					c0,0.2,0.3,0.6,0.1,0.8s-0.5-0.1-0.7-0.2c-1.6-1.5-3.1-3.1-4.8-4.5c-5-4-10.9-6.5-17.2-7.4c-0.1,0-0.2,0-0.3-0.1
					C0.9,1.2,0.3,1.4,0.5,0.8C0.5,0.6,1,0.5,1.1,0.5z"/>
				<path id="Path_34264" class="st0" d="M24.1,14.1c-0.3,0-0.6-0.2-0.9-0.4c-0.6-0.5-1.1-1.1-1.7-1.6c-1-1-2-2-3.1-2.9
					c-4.9-3.9-10.8-6.5-17-7.3l-0.1,0c-0.1,0-0.2,0-0.3-0.1c-0.1,0-0.1,0-0.2,0c-0.3,0-0.6-0.1-0.8-0.3C0,1.2,0,1,0,0.7
					C0.1,0.2,0.9,0,1.1,0h0C6.9,0.1,11.9,2.8,16,5.3c3.1,1.9,5.9,4.2,8.3,7c0,0,0,0,0,0c0.1,0.1,0.2,0.2,0.3,0.4
					c0,0.1,0,0.1,0.1,0.2c0.2,0.3,0.1,0.8-0.1,1C24.4,14,24.3,14.1,24.1,14.1z M20.9,10.1c0.5,0.4,0.9,0.9,1.3,1.3
					c0.2,0.2,0.5,0.4,0.7,0.7C22.2,11.4,21.6,10.7,20.9,10.1L20.9,10.1z M1.7,0.9c3.5,0.5,7,1.6,10.2,3.1C8.7,2.3,5.3,1.2,1.7,0.9
					L1.7,0.9z"/>
			</g>
		</g>
		<g id="Group_40005" transform="translate(88.45)">
			<g id="Group_40004">
				<path id="Path_34265" class="st0" d="M1,0.5c1.5,0.5,3,1,4.4,1.6c3.5,1.5,6.8,3.5,9.8,5.9c0.1,0,0.1,0.1,0.2,0.2
					c0.1,0.3,0.5,0.6,0.3,0.8s-0.6,0-0.8-0.2c-0.5-0.4-1-0.8-1.6-1.2C9.6,4.9,5.5,2.8,1,1.4C0.8,1.4,0.4,1.1,0.5,0.9
					C0.5,0.7,0.8,0.6,1,0.5z"/>
				<path id="Path_34266" class="st0" d="M15.5,9.5c-0.3,0-0.6-0.1-0.9-0.3c-0.4-0.2-0.7-0.5-1-0.8C13.4,8.3,13.2,8.1,13,8
					C9.4,5.3,5.3,3.2,0.9,1.9C0.4,1.7,0,1.3,0,0.8c0.1-0.3,0.3-0.6,0.6-0.6c0,0,0.1,0,0.1-0.1L0.9,0l0.2,0.1c0.5,0.2,1,0.3,1.4,0.5
					c1.1,0.4,2,0.7,3,1.1c3.6,1.5,6.9,3.5,9.9,6l0,0c0.1,0.1,0.2,0.2,0.3,0.3c0,0.1,0.1,0.1,0.1,0.2c0.2,0.2,0.5,0.7,0.1,1.1
					C15.9,9.4,15.7,9.5,15.5,9.5z"/>
			</g>
		</g>
		<g id="Group_40007" transform="translate(55.674 59.648)">
			<g id="Group_40006">
				<path id="Path_34267" class="st0" d="M14.6,1.1c-0.7,2-1.2,4.1-2,6c-2.3,5.7-6.1,10.7-11,14.4c0,0-0.1,0.1-0.1,0.1
					c-0.3,0.1-0.8,0.5-1,0.2s0.3-0.7,0.5-0.9c2.1-1.6,4.1-3.5,5.7-5.6c3.3-4,5.6-8.7,6.7-13.7c0-0.2,0.1-0.5,0.2-0.7
					c0.1-0.2,0.3-0.5,0.6-0.5C14.5,0.5,14.5,0.9,14.6,1.1z"/>
				<path id="Path_34268" class="st0" d="M0.7,22.5c-0.2,0-0.4-0.1-0.5-0.3c-0.2-0.3-0.3-0.8,0.6-1.6c2.1-1.6,4-3.5,5.7-5.5
					c3.2-3.9,5.5-8.6,6.6-13.5c0-0.1,0-0.1,0-0.2c0-0.2,0.1-0.4,0.2-0.6l0,0c0.2-0.2,0.5-0.7,1-0.6c0.3,0.1,0.6,0.3,0.6,0.7
					c0,0.1,0,0.1,0.1,0.2l0.1,0.2l-0.1,0.2c-0.2,0.6-0.4,1.3-0.6,1.9C14,4.5,13.6,6,13,7.3c-2.3,5.8-6.2,10.8-11.1,14.6l0,0
					c-0.1,0.1-0.2,0.1-0.3,0.2c-0.1,0-0.2,0.1-0.3,0.1C1.2,22.4,0.9,22.4,0.7,22.5z M14.1,1.1L14.1,1.1L14.1,1.1
					C14,1.3,14,1.4,14,1.5c0,0,0,0.1,0,0.1C14,1.5,14.1,1.3,14.1,1.1L14.1,1.1z"/>
			</g>
		</g>
		<g id="Group_40009" transform="translate(14.689 33.207)">
			<g id="Group_40008">
				<path id="Path_34269" class="st0" d="M17.6,0.5c-7.4,0.3-13.8,5-16.2,12c-1,3.1-1.2,6.5-0.5,9.7c0.9,4.4,2.3,8.7,4.2,12.7
					c0.1,0.2,0.2,0.4,0.3,0.6c0.2,0.1,0.4,0.4,0.6,0.3s0.2-0.5,0.1-0.7c-0.5-1.2-1.1-2.4-1.5-3.6c-1.7-3.9-2.8-8.1-3.1-12.4
					C0.8,12.9,4,6.8,9.6,3.7C17.4-1,27.5,1.3,32.4,9c1.2,1.9,2.1,4.1,2.4,6.3c0.5,2.9,1.7,5.7,3.5,8c0.1,0.1,0.2,0.3,0.3,0.4
					c0.2,0.1,0.4,0.1,0.6,0.1c0-0.2,0.1-0.5,0-0.6c-0.3-0.6-0.8-1.1-1.1-1.6c-1.3-2.1-2.2-4.5-2.6-7C33.8,6.1,26.2,0.1,17.6,0.5z"/>
				<path id="Path_34270" class="st0" d="M5.8,36.2c0.1,0,0.2,0,0.3-0.1c0.4-0.3,0.5-0.8,0.3-1.2c-0.2-0.5-0.5-1.1-0.7-1.6
					c-0.3-0.6-0.6-1.3-0.8-1.9c-1.7-3.9-2.7-8-3.1-12.2c-0.5-6.1,2.6-12,8-15C17.4-0.5,27.2,1.8,32,9.3c1.2,1.9,2,3.9,2.4,6.1
					c0.5,3,1.7,5.8,3.6,8.2c0,0,0,0.1,0.1,0.1c0.1,0.2,0.2,0.3,0.4,0.4c0.2,0.1,0.3,0.1,0.5,0.1c0.1,0,0.2,0,0.3,0
					c0.1,0,0.3-0.1,0.4-0.2c0.1-0.1,0.1-0.2,0.1-0.3c0,0,0-0.2,0-0.2c0-0.2,0-0.4-0.1-0.6c-0.2-0.3-0.4-0.6-0.6-0.9
					c-0.2-0.2-0.3-0.5-0.5-0.7c-1.3-2.1-2.2-4.4-2.5-6.8C34.2,5.8,26.4-0.3,17.5,0l0,0c-3.7,0.1-7.3,1.4-10.2,3.6
					c-3,2.2-5.2,5.2-6.4,8.7c-1.1,3.2-1.3,6.6-0.5,9.9c0.9,4.4,2.3,8.7,4.2,12.8c0,0,0,0.1,0.1,0.1c0.1,0.2,0.2,0.4,0.3,0.5l0,0
					C5.2,36,5.5,36.2,5.8,36.2z"/>
			</g>
		</g>
		<g id="Group_40011" transform="translate(17.18 37.167)">
			<g id="Group_40010">
				<path id="Path_34271" class="st0" d="M15.3,0.5C8.5,1,3.8,4.3,1.4,10.6c-1.1,3-1.2,6.3-0.4,9.4c1,4.6,2.6,9.1,4.8,13.3
					c0.5,1,1.1,1.9,1.6,2.8c0.1,0.2,0.4,0.4,0.6,0.3c0.2-0.1,0.2-0.6,0.1-0.7c-1.3-2.7-2.8-5.3-4-8.1c-1.5-3.4-2.5-7.1-2.8-10.8
					C0.9,11.4,3.5,6.2,8.2,3.5C15-0.7,23.9,1.4,28,8.2c1,1.6,1.6,3.4,2,5.2c0.7,4,2.6,7.8,5.5,10.7c0.1,0.1,0.2,0.2,0.3,0.3
					c0.2,0.1,0.6,0.3,0.8,0.1s-0.1-0.6-0.2-0.7c-1.9-1.8-3.4-4-4.3-6.5c-0.7-1.8-1.1-3.7-1.5-5.6c-1.6-5.8-6.6-10.2-12.6-11
					C17,0.6,16.1,0.5,15.3,0.5z"/>
				<path id="Path_34272" class="st0" d="M7,36.4c-0.6-0.9-1.1-1.8-1.7-2.8c-2.2-4.3-3.8-8.8-4.8-13.5c-0.9-3.2-0.7-6.6,0.4-9.7
					C3.5,4.1,8.3,0.6,15.3,0h0h0c0.2,0,0.5,0,0.8,0.1c0.6,0,1.2,0.1,1.8,0.1c6.2,0.9,11.3,5.3,13,11.4c0.1,0.4,0.2,0.9,0.3,1.3
					c0.3,1.5,0.7,2.9,1.2,4.3c0.9,2.4,2.3,4.5,4.2,6.3c0.3,0.3,0.6,0.9,0.2,1.3c-0.3,0.4-0.8,0.2-1.1,0.1c-0.1,0-0.1,0-0.2-0.1
					c-0.2-0.1-0.3-0.2-0.4-0.3c0,0,0,0-0.1-0.1c-2.9-3-4.9-6.8-5.6-10.9c-0.4-2.7-1.7-5.3-3.6-7.3C21.4,1.3,14.1,0.4,8.5,3.9
					c-4.5,2.6-7.1,7.7-6.6,12.9c0.3,3.7,1.2,7.3,2.7,10.7c0.8,1.8,1.7,3.5,2.5,5.2c0.5,0.9,1,1.9,1.4,2.8c0.3,0.4,0.2,1-0.3,1.3
					C8.2,37,8.1,37,7.9,37C7.6,36.9,7.2,36.7,7,36.4z M6.2,33.2c0.3,0.6,0.6,1.2,1,1.7C6.9,34.3,6.6,33.7,6.2,33.2
					c-0.5-1.3-1.2-2.5-1.8-3.8C4.9,30.6,5.5,31.9,6.2,33.2z M31,15.8c-0.1-0.4-0.2-0.8-0.3-1.2C30.8,15,30.9,15.4,31,15.8z"/>
			</g>
		</g>
		<g id="Group_40013" transform="translate(11.837 28.763)">
			<g id="Group_40012">
				<path id="Path_34273" class="st0" d="M20,1.3c6.7-0.2,13.1,3,16.8,8.7c1.5,2.3,2.5,4.8,3,7.5c0.3,1.4,0.8,2.7,1.3,4.1
					c0.1,0.2,0.4,0.7,0.7,0.6s0.1-0.6,0-0.9c-0.5-1.9-1.1-3.8-1.6-5.7C37.3,4.7,26.2-1.7,15.4,1.2c-0.4,0.1-0.9,0.3-1.3,0.4
					C5,4.7-0.6,13.8,0.6,23.4c0.5,3.4,1.3,6.7,2.5,9.9c0,0.1,0.1,0.3,0.1,0.4C3.4,33.8,3.6,34,3.8,34S4,33.6,4,33.4
					c-0.1-0.4-0.2-0.7-0.3-1.1c-1.2-3.7-2.4-7.5-2.4-11.5C1.2,14.1,4.6,7.8,10.5,4.3C13.3,2.4,16.6,1.4,20,1.3z"/>
				<path id="Path_34274" class="st0" d="M3.1,34.1C3,34,3,34,3.1,34.1c-0.2-0.2-0.3-0.4-0.3-0.5c0,0,0-0.1,0-0.1
					c-1.2-3.2-2.1-6.6-2.5-10c-0.6-4.8,0.4-9.7,3-13.8c2.5-4,6.3-7,10.8-8.4c10.8-3.7,22.6,2.1,26.3,12.9c0.1,0.4,0.3,0.9,0.4,1.3
					c0.3,1,0.6,2,0.9,3c0.3,0.9,0.5,1.8,0.8,2.7c0,0,0,0.1,0,0.1c0.1,0.3,0.3,1-0.3,1.3c-0.2,0.1-0.4,0.1-0.6,0
					c-0.3-0.2-0.6-0.5-0.8-0.8c-0.1-0.2-0.1-0.4-0.2-0.6c-0.4-1.1-0.8-2.3-1.1-3.5c-0.5-2.6-1.5-5.1-2.9-7.3
					c-3.6-5.5-9.8-8.7-16.4-8.5h0c-3.3,0.1-6.5,1.1-9.3,2.9C5,8.1,1.6,14.3,1.8,20.9c0,3.8,1.1,7.4,2.4,11.3c0,0.1,0.1,0.2,0.1,0.2
					c0.1,0.3,0.2,0.6,0.2,0.9c0.1,0.4-0.1,0.8-0.5,1c-0.1,0-0.1,0-0.2,0C3.5,34.4,3.2,34.3,3.1,34.1z M40.9,19.6
					c-0.1-0.3-0.2-0.6-0.3-0.9c-0.1-0.4-0.2-0.8-0.3-1.2C40.4,18.2,40.6,18.9,40.9,19.6L40.9,19.6z"/>
			</g>
		</g>
		<g id="Group_40015" transform="translate(20.467 41.477)">
			<g id="Group_40014">
				<path id="Path_34275" class="st0" d="M0.5,14.6c0.4,1.9,0.9,4.4,1.7,6.9c1,2.8,2.1,5.6,3.4,8.3c1.1,2.1,2.4,4,3.7,5.9
					c0.1,0.2,0.6,0.4,0.8,0.3c0.4-0.3,0.1-0.6-0.1-0.8C6.3,30.3,3.7,24.8,2.3,19c-0.6-2.6-1.2-5.1-0.8-7.8C2.7,4.7,8.9,0.4,15.3,1.5
					c0.3,0.1,0.6,0.1,0.9,0.2c5.1,1.4,8,4.9,8.9,10c0.9,4.9,3.4,9.4,7.2,12.7c0.1,0.1,0.2,0.2,0.4,0.3c0.2,0.1,0.5,0.2,0.6,0
					s0-0.5-0.1-0.7c-0.6-0.6-1.2-1.1-1.8-1.8c-2.9-3.2-4.9-7.3-5.6-11.6c-1.3-6.9-8-11.4-14.9-10C9.8,0.9,8.7,1.3,7.7,1.8
					C2.8,4.3,0.5,8.4,0.5,14.6z"/>
				<path id="Path_34276" class="st0" d="M9.8,36.5c-0.3-0.1-0.7-0.3-0.9-0.5c-0.3-0.5-0.7-1-1-1.5c-1-1.4-1.9-3-2.8-4.5
					c-1.3-2.7-2.5-5.5-3.5-8.4c-0.5-1.7-1-3.4-1.3-5.2c-0.1-0.6-0.3-1.2-0.4-1.7l0-0.1v-0.1C0,8.2,2.5,3.9,7.5,1.4
					C14-1.8,21.9,0.8,25.1,7.3c0.5,1.1,0.9,2.2,1.1,3.3c0.7,4.2,2.6,8.2,5.5,11.3c0.3,0.3,0.6,0.6,0.9,0.9c0.3,0.3,0.6,0.6,0.9,0.9
					c0.3,0.3,0.4,0.9,0.1,1.3c-0.3,0.2-0.7,0.3-1,0.1l-0.1,0c-0.2-0.1-0.4-0.2-0.5-0.3c0,0,0,0-0.1-0.1c-3.8-3.4-6.4-7.9-7.3-13
					c-1-5.1-3.8-8.3-8.6-9.6c-3-0.8-6.3-0.3-9,1.4C4.4,5.3,2.5,8.1,2,11.3c-0.5,2.6,0.2,5.2,0.8,7.6c1.5,5.8,4,11.2,7.6,16
					c0,0,0.1,0.1,0.1,0.1c0.2,0.2,0.3,0.5,0.3,0.8c0,0.2-0.2,0.4-0.4,0.6c-0.1,0.1-0.2,0.1-0.3,0.1C9.9,36.5,9.8,36.5,9.8,36.5z
					 M0.9,14.5c0,0.1,0,0.2,0.1,0.2c0-0.2,0-0.4-0.1-0.6C0.9,14.3,0.9,14.4,0.9,14.5L0.9,14.5z"/>
			</g>
		</g>
		<g id="Group_40017" transform="translate(23.482 44.832)">
			<g id="Group_40016">
				<path id="Path_34277" class="st0" d="M10.4,0.5C4.7,0.6,0.3,5.4,0.4,11.1c0,0.7,0.1,1.3,0.2,2c0.8,4.4,2.3,8.6,4.3,12.6
					c1.6,3.1,3.5,5.9,5.8,8.6c0.1,0.1,0.2,0.2,0.3,0.3c0.2,0.1,0.5,0.3,0.6,0.1s0.1-0.5,0-0.7c-0.5-0.7-1.1-1.3-1.6-2
					c-2.7-3.4-4.9-7.3-6.4-11.4C2.7,18,2,15.3,1.5,12.7C0.4,7.5,3.7,2.5,8.8,1.5c4.6-1,9.2,1.7,10.8,6.1c0.7,2.1,1.1,4.4,1.8,6.4
					c1.5,4.1,4.1,7.7,7.6,10.4c0.2,0.2,0.7,0.4,0.9,0.1c0.2-0.2-0.1-0.6-0.3-0.8c-4.6-3.8-7.7-9.1-8.7-15.1
					C19.9,3.8,15.5,0.3,10.4,0.5z"/>
				<path id="Path_34278" class="st0" d="M11.5,35.1c0.2,0,0.3-0.1,0.4-0.1c0.3-0.4,0.4-0.9,0.1-1.3c-0.3-0.4-0.7-0.8-1-1.2
					c-0.2-0.2-0.4-0.5-0.6-0.7c-2.7-3.4-4.8-7.2-6.3-11.3c-0.9-2.6-1.6-5.2-2.1-7.8C1,8.6,3,4.5,6.7,2.7c4.4-2.3,9.8-0.6,12,3.8
					c0.2,0.4,0.4,0.8,0.5,1.2c0.3,1,0.6,2,0.8,3c0.3,1.1,0.6,2.3,1,3.4c1.5,4.2,4.2,7.9,7.7,10.6c0.3,0.2,0.7,0.4,1,0.3
					c0.2,0,0.4-0.1,0.5-0.3c0.3-0.4,0-1-0.4-1.4c-4.5-3.7-7.6-9-8.5-14.8c-1-5.2-5.6-8.9-10.9-8.7c-3.1,0.1-6.1,1.5-8,4
					c-2,2.6-2.8,5.9-2.2,9.2c0.8,4.4,2.3,8.7,4.3,12.7c1.6,3.1,3.6,6,5.8,8.6c0,0,0,0,0,0.1c0.1,0.2,0.2,0.3,0.4,0.3
					c0,0,0.1,0,0.1,0C11.1,35,11.3,35.1,11.5,35.1z"/>
			</g>
		</g>
		<g id="Group_40019" transform="translate(26.445 48.835)">
			<g id="Group_40018">
				<path id="Path_34279" class="st0" d="M8,1.3c3.4-0.2,6.5,2.2,7.1,5.6c0.5,3,1.5,5.9,2.9,8.6c1.8,3.4,4.3,6.4,7.4,8.8
					c0.2,0.1,1.4,0.5,1.5,0.3s-0.9-0.7-1.1-0.9c-3.1-2.5-5.6-5.6-7.4-9.1c-1.2-2.5-2.1-5.2-2.6-8c-0.7-3.1-3.2-5.5-6.3-6
					c-3-0.5-6,0.8-7.8,3.3c-1.3,1.9-1.7,4.3-1.1,6.5C2.2,18.6,6.2,26.2,12,32.1c0.2,0.2,2.8,2.5,3,2.2s-2.2-2.6-2.4-2.8
					C9.1,28,6.3,23.9,4.3,19.3c-1.5-3.2-2.5-6.7-3-10.2C0.9,5.3,3.6,1.8,7.4,1.4C7.6,1.3,7.8,1.3,8,1.3z"/>
				<path id="Path_34280" class="st0" d="M14.9,34.8L14.9,34.8c0.1,0,0.3-0.1,0.4-0.2c0.4-0.4,0-0.9-0.9-1.9
					c-0.6-0.6-1.2-1.3-1.4-1.5l-0.1-0.1c-3.4-3.5-6.2-7.6-8.2-12.1c-1.4-3.2-2.4-6.6-3-10.1C1.5,7.3,2.1,5.5,3.2,4.2
					C4.4,2.7,6.2,1.8,8,1.8c3.2-0.2,6.1,2.1,6.7,5.2c0.5,3,1.5,6,3,8.7c1.8,3.5,4.4,6.5,7.6,9c0.5,0.3,1.1,0.4,1.7,0.4
					c0.2,0,0.3-0.1,0.5-0.3c0.1-0.1,0.1-0.3,0.1-0.4c-0.1-0.3-0.4-0.6-1-1c-0.1,0-0.2-0.1-0.2-0.1c-3.1-2.4-5.6-5.5-7.3-8.9
					c-1.2-2.5-2.1-5.2-2.6-7.9C15.6,3.2,13,0.7,9.7,0.1C6.5-0.4,3.3,1,1.4,3.6c-1.3,2-1.8,4.5-1.2,6.8c1.6,8.3,5.6,15.9,11.4,22
					c0.1,0.1,0.8,0.7,1.4,1.2C14.5,34.8,14.7,34.8,14.9,34.8z"/>
			</g>
		</g>
		<g id="Group_40021" transform="translate(29.417 52.389)">
			<g id="Group_40020">
				<path id="Path_34281" class="st0" d="M5.6,0.5c-3,0.2-5.3,2.7-5.1,5.7c0,0.4,0.1,0.7,0.2,1c1.5,8.4,5.7,16,11.9,21.9
					c0.3,0.3,1.5,1.9,2,1.4s-1.2-1.7-1.5-2c-2.8-2.7-5.2-5.8-7.1-9.1c-2.2-3.9-3.7-8.1-4.5-12.4C0.9,4.8,1.9,2.6,3.9,1.7
					C5.8,0.8,8,1.3,9.3,3c0.5,0.6,0.8,1.3,1,2c1.2,7,4.8,13.3,10.2,17.9c0.4,0.3,0.8,0.6,1.2,0.9c0.2,0.1,2,1.7,2.3,0.6
					c0.1-0.3-1.6-1-1.8-1.2c-1.6-1.6-3.3-3-4.7-4.6c-3.3-3.9-5.5-8.6-6.3-13.7C10.6,2.2,8.2,0.3,5.6,0.5z"/>
				<path id="Path_34282" class="st0" d="M14.2,31c-0.6,0-1.2-0.7-1.9-1.4c-0.1-0.1-0.2-0.2-0.2-0.2C5.9,23.5,1.7,15.7,0.1,7.3
					c-0.4-1.8,0-3.7,1.2-5.1c1-1.3,2.6-2.1,4.2-2.1c2.9-0.2,5.5,1.9,6,4.8c0.8,5,2.9,9.6,6.2,13.5c0.9,1.1,1.9,2.1,3,3
					c0.6,0.5,1.1,1,1.7,1.6c0.1,0,0.3,0.2,0.5,0.3c1.1,0.6,1.6,0.9,1.5,1.4c-0.1,0.3-0.3,0.6-0.6,0.7c-0.6,0.2-1.5-0.3-2.3-0.9
					c-0.1,0-0.1-0.1-0.1-0.1c-0.4-0.3-0.9-0.6-1.2-1C14.7,18.6,11,12.2,9.8,5.1C9.6,4.4,9.4,3.8,8.9,3.3C7.8,1.8,5.8,1.3,4.1,2.1
					C2.3,3,1.4,4.9,1.8,6.8c0.8,4.3,2.3,8.5,4.4,12.3c1.9,3.3,4.3,6.4,7,9c0,0,0.1,0.1,0.2,0.2c0.7,0.6,1.4,1.3,1.5,1.9
					C15,30.6,14.7,31,14.2,31C14.3,31,14.3,31,14.2,31L14.2,31z M13.8,29.8c-0.1-0.1-0.2-0.2-0.3-0.3C13.6,29.6,13.7,29.7,13.8,29.8
					L13.8,29.8z M20.7,22.6c0.2,0.2,0.4,0.3,0.6,0.5c-0.4-0.4-0.8-0.8-1.2-1.2c-0.6-0.5-1.2-1.1-1.8-1.7
					C19.1,21.1,19.9,21.9,20.7,22.6L20.7,22.6z M22.4,22.9L22.4,22.9z"/>
			</g>
		</g>
		<g id="Group_40023" transform="translate(8.943 25.223)">
			<g id="Group_40022">
				<path id="Path_34283" class="st0" d="M1.3,24.6c0-8.4,3-14.9,9.5-19.4C17.1,0.8,24,0.1,31.2,2.8c3.4,1.3,6.4,3.5,8.8,6.3
					C40,9.2,40,9.3,40.1,9.3c0.3,0.1,0.6,0.6,0.9,0.4s-0.1-0.7-0.3-1c-6.3-7.2-14.2-9.8-23.5-7.5C11.3,2.8,6.3,6.6,3.4,12
					C0.6,16.9-0.3,22.6,1,28.1c0.1,0.7,0.2,1.4,0.4,2c0.1,0.3,0.1,0.9,0.6,0.8c0.1,0,0.2-0.6,0.2-0.9C1.9,28,1.5,26,1.3,24.6z"/>
				<path id="Path_34284" class="st0" d="M1.4,31.2C1.2,31,1,30.7,1,30.4c0-0.1,0-0.1,0-0.2c-0.1-0.4-0.2-0.9-0.3-1.3
					c0-0.2-0.1-0.5-0.1-0.7C-0.7,22.6,0.2,16.7,3,11.7C6,6.3,11.1,2.3,17.1,0.8C26.5-1.5,34.5,1,41.1,8.4c0.3,0.3,0.4,0.7,0.5,1.1
					c0,0.2-0.1,0.4-0.3,0.5c-0.5,0.4-0.9,0-1.2-0.2C40,9.8,40,9.8,39.9,9.7c-0.1-0.1-0.2-0.2-0.3-0.3c0,0,0,0,0,0l0,0
					c-2.3-2.8-5.2-4.9-8.6-6.2c-7.2-2.7-13.9-1.9-20,2.3c-6.2,4.3-9.3,10.5-9.3,19c0.1,0.3,0.1,0.7,0.2,1c0.2,1.2,0.5,2.8,0.8,4.3
					c0,0,0.2,1.3-0.5,1.5c-0.1,0-0.2,0-0.3,0C1.7,31.4,1.6,31.3,1.4,31.2z M1,20.7c0.1-0.9,0.3-1.9,0.5-2.8
					C1.3,18.9,1.1,19.8,1,20.7L1,20.7z M8.4,6.5c0.7-0.6,1.4-1.1,2.1-1.6c0.5-0.3,0.9-0.6,1.4-0.9C10.6,4.6,9.5,5.5,8.4,6.5L8.4,6.5
					z M30.5,2.1c-0.7-0.2-1.3-0.4-2-0.6C29.1,1.7,29.8,1.8,30.5,2.1L30.5,2.1z"/>
			</g>
		</g>
		<g id="Group_40025" transform="translate(32.577 56.063)">
			<g id="Group_40024">
				<path id="Path_34285" class="st0" d="M3.3,0.5c-1.6,0-2.8,1.3-2.8,2.8c0,0.2,0,0.3,0,0.5C1.1,7.7,2.4,11.5,4.2,15
					c2.1,4,4.9,7.6,8.3,10.6c0.1,0.1,0.2,0.3,0.4,0.3c0.3,0.1,1.1,0.9,1.3,0.6s-0.5-1-0.7-1.2c-1.8-2-3.8-3.8-5.4-5.9
					c-3.3-4.2-5.5-9.2-6.5-14.4C1.5,4.6,1.4,4.2,1.3,3.8C1.1,2.7,1.8,1.6,2.9,1.3c0,0,0.1,0,0.1,0c1.2-0.2,2.2,0.6,2.4,1.8
					c0.3,1.5,0.7,3,1.1,4.5c1.3,4.1,3.4,7.9,6.3,11.1c1.2,1.3,1.6,1.3,2.8,2.6c0.4,0.5,0.8,0.9,1.3,1.3c0.3,0.1,0.9,1.2,1.3,0.1
					c0.1-0.3-0.1-0.4-0.4-0.5c-0.9-0.6-1.8-1.3-2.7-2.1c-4.7-4.6-7.8-10.5-9-17C6.1,1.6,4.8,0.4,3.3,0.5z"/>
				<path id="Path_34286" class="st0" d="M13.1,26.5c-0.1-0.1-0.2-0.2-0.3-0.2c-0.2-0.1-0.3-0.2-0.4-0.3c0,0-0.1-0.1-0.1-0.1
					C8.8,22.9,6,19.2,3.8,15.2C2,11.6,0.7,7.8,0,3.8C-0.1,2.9,0.1,2,0.7,1.2C1.3,0.5,2.3,0,3.2,0l0,0C5-0.1,6.5,1.3,6.7,3.1
					c1.1,6.4,4.2,12.2,8.8,16.7c0.8,0.8,1.7,1.4,2.6,2c0,0,0.1,0.1,0.1,0.1c0.4,0.2,0.6,0.6,0.4,1c-0.1,0.4-0.4,0.6-0.7,0.7
					c-0.4,0-0.8-0.2-1.1-0.5c0,0-0.1-0.1-0.1-0.1c-0.4-0.3-0.8-0.7-1.2-1.1c-0.1-0.1-0.2-0.2-0.2-0.3c-0.4-0.4-0.9-0.8-1.3-1.2
					c-0.6-0.4-1.1-0.9-1.5-1.4c-2.9-3.3-5.1-7.1-6.3-11.3C5.7,6.5,5.4,5.3,5.2,4C5.1,3.7,5,3.5,5,3.2C4.8,2.3,4,1.6,3.1,1.8
					c-0.9,0.2-1.4,1-1.3,1.9c0,0,0,0.1,0,0.1c0,0.2,0.1,0.5,0.1,0.8C2,4.6,2,4.7,2,4.8C3,10,5.2,14.9,8.4,19.1
					c1.1,1.4,2.3,2.7,3.5,3.9c0.6,0.7,1.3,1.3,1.9,2l0,0c0.6,0.6,1.1,1.3,0.7,1.8C14.4,27,14.3,27,14.1,27
					C13.7,27,13.4,26.8,13.1,26.5z M12.4,24.8c-0.4-0.4-0.8-0.8-1.2-1.2c-0.9-0.9-1.8-1.9-2.7-2.9C9.8,22.2,11.1,23.6,12.4,24.8
					L12.4,24.8z M16.7,23L16.7,23z M17.7,22.6C17.7,22.7,17.7,22.7,17.7,22.6L17.7,22.6L17.7,22.6z"/>
			</g>
		</g>
		<g id="Group_40027" transform="translate(5.809 21.272)">
			<g id="Group_40026">
				<path id="Path_34287" class="st0" d="M25.7,0.5C14.1,0.8,4.6,8.2,1.5,18.4c-0.7,2.5-1.1,5.2-1.1,7.8c0,0.1,0,0.3,0,0.4
					c0.1,0.2,0.2,0.5,0.4,0.5c0.2,0,0.4-0.4,0.4-0.6c0.1-0.9,0-1.9,0.1-2.8c0.8-8,4.5-14.4,11.4-18.7c6.5-4.2,14.6-5,21.7-2
					c1.7,0.7,3.3,1.6,4.8,2.5c0.2,0.1,0.7,0.2,0.8,0.1C40.5,5.2,40,5,39.8,4.8C35.7,2,30.8,0.4,25.7,0.5z"/>
				<path id="Path_34288" class="st0" d="M0.2,27c0,0,0-0.1-0.1-0.1C0,26.7,0,26.5,0,26.3c0,0,0,0,0-0.1c0-2.7,0.3-5.4,1.1-7.9
					c1.5-5.2,4.7-9.7,9-12.9C14.6,2,20.1,0.1,25.7,0l0,0C30.8,0,35.8,1.5,40,4.4c0,0,0.1,0,0.1,0.1c0.3,0.1,0.5,0.4,0.6,0.7
					c0,0.2-0.1,0.5-0.2,0.7c-0.4,0.4-1.2,0.1-1.4,0c-0.6-0.3-1.2-0.6-1.7-0.9c-7.6-4.5-17-4.3-24.4,0.5C6.4,9.6,2.7,15.7,1.9,23.8
					c0,0.5-0.1,1-0.1,1.5c0,0.4,0,0.9,0,1.3c0,0.4-0.3,1-0.8,1h0C0.5,27.6,0.3,27.2,0.2,27z M37.8,4.2c0.2,0.1,0.5,0.3,0.7,0.4
					c-0.6-0.4-1.3-0.7-1.9-1.1C37,3.7,37.4,4,37.8,4.2L37.8,4.2z M32.8,2c-0.6-0.2-1.2-0.3-1.8-0.5C31.7,1.6,32.2,1.8,32.8,2L32.8,2
					z"/>
			</g>
		</g>
		<g id="Group_40029" transform="translate(2.336 17.891)">
			<g id="Group_40028">
				<path id="Path_34289" class="st0" d="M26.8,0.5C19.1,0.7,11.9,4.2,6.8,10c-3.3,3.7-5.5,8.3-6.4,13.2c-0.1,0.3-0.1,0.9,0.2,0.9
					s0.5-0.5,0.6-0.8C4,8.7,18-0.9,32.6,1.8c1.9,0.4,3.8,0.9,5.6,1.7c0.2,0.1,0.7,0.1,0.8,0c0.3-0.5-0.2-0.6-0.5-0.8
					c-3-1.3-6.1-2-9.3-2.1C28.2,0.5,27.4,0.5,26.8,0.5z"/>
				<path id="Path_34290" class="st0" d="M0.8,24.6c0.5,0,0.8-0.4,1-1.2C4.4,9.1,18.1-0.4,32.5,2.2c1.9,0.3,3.7,0.9,5.5,1.6
					c0.3,0.1,1.1,0.2,1.4-0.2c0.1-0.2,0.2-0.5,0.1-0.7c-0.2-0.3-0.4-0.6-0.8-0.7l0,0c-3-1.3-6.2-2-9.5-2.2c-0.6,0-1.3,0-1.8,0
					c-0.2,0-0.4,0-0.6,0h0c-8.3,0.5-15,3.7-20.2,9.7C3.1,13.4,0.9,18.1,0,23.1c-0.1,0.4,0,0.8,0.2,1.2c0.1,0.2,0.3,0.3,0.5,0.3
					C0.7,24.6,0.7,24.6,0.8,24.6z"/>
			</g>
		</g>
		<g id="Group_40031" transform="translate(0.797 14.512)">
			<g id="Group_40030">
				<path id="Path_34291" class="st0" d="M27.9,0.5C15.5,1,4.7,8.9,0.6,20.6c0,0.1-0.1,0.2-0.1,0.3c0,0.3-0.1,0.7,0.2,0.8
					s0.5-0.3,0.6-0.5c0.5-1.1,0.9-2.3,1.5-3.4c2.4-4.9,6.1-9,10.7-11.9c6.7-4.2,14.8-5.5,22.5-3.6c0.1,0,0.3,0.1,0.4,0.1
					c0.2,0,0.6,0,0.7-0.2s-0.3-0.5-0.4-0.5C35.2,1.2,34,1,32.8,0.8C31.1,0.6,29.5,0.6,27.9,0.5z"/>
				<path id="Path_34292" class="st0" d="M0.5,22C0,21.9,0,21.4,0,21.1C0,21,0,21,0,20.9c0-0.2,0-0.3,0.1-0.5c0,0,0,0,0,0
					C4.4,8.6,15.3,0.5,27.9,0h0h0c0.5,0,1,0.1,1.5,0.1c1.1,0.1,2.3,0.1,3.4,0.3C33.9,0.5,35,0.7,36.1,1l0.4,0.1
					c0.3,0.1,0.5,0.3,0.7,0.5c0.1,0.2,0.1,0.4,0.1,0.6c-0.1,0.5-0.6,0.5-0.9,0.6c-0.1,0-0.1,0-0.1,0c-0.2,0-0.3,0-0.5-0.1
					c0,0-0.1,0-0.1,0C22.7-0.6,9.1,5.8,3.1,17.9c-0.3,0.6-0.6,1.3-0.8,1.9c-0.2,0.5-0.4,1-0.6,1.5c-0.1,0.4-0.5,0.7-0.9,0.8
					C0.7,22.1,0.6,22.1,0.5,22z M27.9,0.9c-0.8,0-1.5,0.1-2.3,0.2C26.4,1,27.2,1,28,0.9L27.9,0.9z"/>
			</g>
		</g>
		<g id="Group_40033" transform="translate(0 11.249)">
			<g id="Group_40032">
				<path id="Path_34293" class="st0" d="M0.5,18.8c0,0.2,0.2,0.3,0.3,0.4c0.2,0,0.4-0.1,0.5-0.3c0.3-0.4,0.5-0.9,0.8-1.4
					C8.4,6.4,20.7,0.1,33.3,1.5c0.2,0,0.7-0.1,0.7-0.3s-0.4-0.5-0.7-0.5c-3-0.4-6-0.3-9,0.2C14.2,2.6,5.4,9,0.7,18.2
					C0.6,18.4,0.4,18.5,0.5,18.8z"/>
				<path id="Path_34294" class="st0" d="M0.8,19.6c0.3,0,0.7-0.2,0.9-0.5c0.2-0.3,0.4-0.6,0.6-0.9c0.1-0.2,0.2-0.3,0.2-0.5
					C8.7,6.8,20.8,0.6,33.3,2c0.3,0,0.7-0.1,1-0.3c0.2-0.1,0.3-0.3,0.3-0.5c0.1-0.6-0.6-0.9-1.1-1c-3-0.4-6.1-0.3-9.1,0.2
					C14,2.2,5.1,8.7,0.3,18c0,0,0,0.1-0.1,0.1C0.1,18.3,0,18.5,0,18.8l0,0C0.1,19.2,0.4,19.5,0.8,19.6L0.8,19.6z"/>
			</g>
		</g>
		<g id="Group_40035" transform="translate(0.052 7.797)">
			<g id="Group_40034">
				<path id="Path_34295" class="st0" d="M27.4,0.5c-5.4,0.3-10.6,1.9-15.2,4.6C7.6,7.7,3.7,11.4,0.7,15.7c-0.2,0.3-0.4,0.6,0,0.8
					c0.1,0.1,0.6-0.2,0.7-0.4c2.5-3.7,5.8-6.9,9.5-9.3c3.8-2.5,8-4.2,12.5-5c1.9-0.3,3.8-0.4,5.7-0.6c0.1,0,0.3,0,0.4,0
					C29.7,1.2,30,1,30,0.8s-0.3-0.4-0.5-0.4C28.8,0.4,28.1,0.5,27.4,0.5z"/>
				<path id="Path_34296" class="st0" d="M0.8,17.1c0.4-0.1,0.8-0.3,1-0.6c2.5-3.7,5.7-6.8,9.4-9.2c3.7-2.5,7.9-4.1,12.3-4.9
					c1.3-0.2,2.6-0.3,3.9-0.4c0.6,0,1.2-0.1,1.8-0.2h0.1c0.2,0,0.4,0,0.5-0.1c0,0,0.1,0,0.1-0.1c0.3-0.1,0.6-0.4,0.6-0.8
					C30.4,0.3,30,0,29.5,0c-0.5,0-1,0-1.5,0c-0.2,0-0.4,0-0.6,0h0C22,0.4,16.7,2,12,4.7C7.3,7.4,3.4,11,0.3,15.5
					c-0.2,0.3-0.4,0.6-0.3,1c0.1,0.2,0.2,0.4,0.5,0.5C0.6,17,0.7,17.1,0.8,17.1z"/>
			</g>
		</g>
		<g id="Group_40037" transform="translate(1.239 3.061)">
			<g id="Group_40036">
				<path id="Path_34297" class="st0" d="M23.7,0.5C18.3,0.6,13.5,3,9,5.7C6,7.6,3.2,9.9,0.8,12.6c-0.1,0.1-0.2,0.1-0.2,0.2
					c0,0.2-0.3,0.6-0.1,0.8s0.5-0.1,0.7-0.2c1.6-1.5,3.1-3.1,4.8-4.5c5-4,10.9-6.5,17.2-7.4c0.1,0,0.2,0,0.3-0.1
					c0.3-0.1,0.9,0.1,0.7-0.5C24.3,0.6,23.8,0.5,23.7,0.5z"/>
				<path id="Path_34298" class="st0" d="M0.2,13.9c-0.3-0.3-0.3-0.7-0.1-1c0-0.1,0-0.1,0.1-0.2c0-0.2,0.1-0.3,0.3-0.4c0,0,0,0,0,0
					c2.4-2.7,5.2-5,8.3-7c4.1-2.5,9.1-5.2,14.9-5.3h0c0.2,0,0.9,0.2,1.1,0.7c0.1,0.2,0,0.5-0.1,0.7c-0.2,0.2-0.5,0.3-0.8,0.3
					c-0.1,0-0.1,0-0.2,0c-0.1,0-0.2,0-0.3,0.1l-0.1,0c-6.2,0.9-12.1,3.4-17,7.3c-1.1,0.9-2.1,1.9-3.1,2.9c-0.5,0.5-1.1,1.1-1.7,1.6
					c-0.2,0.2-0.5,0.4-0.9,0.4C0.5,14.1,0.4,14,0.2,13.9z M1.9,12.1c0.2-0.2,0.5-0.4,0.7-0.7C3,11,3.5,10.5,3.9,10.1
					C3.2,10.7,2.6,11.4,1.9,12.1L1.9,12.1z M12.9,4c3.2-1.5,6.7-2.5,10.2-3.1C19.5,1.2,16.1,2.3,12.9,4L12.9,4z"/>
			</g>
		</g>
		<g id="Group_40039" transform="translate(0.88 0.131)">
			<g id="Group_40038">
				<path id="Path_34299" class="st0" d="M15.2,0.5c-1.5,0.5-3,1-4.4,1.6C7.2,3.6,3.9,5.6,1,8.1c-0.1,0-0.1,0.1-0.2,0.2
					C0.7,8.5,0.3,8.8,0.5,9s0.6,0,0.8-0.2c0.5-0.4,1-0.8,1.6-1.2c3.7-2.8,7.8-4.9,12.3-6.2c0.2-0.1,0.6-0.3,0.6-0.6
					C15.7,0.7,15.4,0.6,15.2,0.5z"/>
				<path id="Path_34300" class="st0" d="M0.7,9.5c0.3,0,0.6-0.1,0.9-0.3C2,9,2.3,8.7,2.6,8.4C2.8,8.3,3,8.1,3.2,8
					c3.7-2.7,7.8-4.8,12.1-6.1c0.5-0.1,1-0.5,0.9-1.1c-0.1-0.3-0.3-0.6-0.6-0.6c0,0-0.1,0-0.1-0.1L15.3,0l-0.2,0.1
					c-0.5,0.2-1,0.3-1.4,0.5c-1,0.4-2,0.7-3,1.1C7,3.2,3.7,5.2,0.7,7.7l0,0C0.5,7.8,0.4,7.9,0.4,8c0,0.1-0.1,0.1-0.1,0.2
					C0.1,8.4-0.2,8.9,0.2,9.3C0.3,9.4,0.5,9.5,0.7,9.5z"/>
			</g>
		</g>
		<g id="Group_40041" transform="translate(35.259 59.779)">
			<g id="Group_40040">
				<path id="Path_34301" class="st0" d="M0.5,1.1c0.7,2,1.2,4.1,2,6c2.3,5.7,6.1,10.7,11,14.4c0,0,0.1,0.1,0.1,0.1
					c0.3,0.1,0.8,0.5,1,0.2s-0.3-0.7-0.5-0.9c-2.1-1.6-4.1-3.5-5.7-5.6c-3.3-4-5.6-8.7-6.7-13.7c0-0.2-0.1-0.5-0.2-0.7
					C1.3,0.8,1.1,0.4,0.9,0.5C0.7,0.5,0.6,0.9,0.5,1.1z"/>
				<path id="Path_34302" class="st0" d="M13.7,22.2c-0.1,0-0.2-0.1-0.3-0.1c-0.1,0-0.2-0.1-0.3-0.2l0,0C8.3,18.2,4.4,13.1,2.1,7.3
					C1.5,6,1.1,4.6,0.7,3.2C0.5,2.6,0.3,1.9,0.1,1.3L0,1.1l0.1-0.2c0-0.1,0.1-0.1,0.1-0.2C0.2,0.4,0.5,0.1,0.8,0
					c0.5-0.1,0.8,0.4,1,0.6l0,0C1.9,0.9,2,1.1,2,1.4c0,0.1,0,0.1,0,0.2c1.1,5,3.4,9.6,6.6,13.5c1.7,2.1,3.6,3.9,5.7,5.5
					c0.9,0.7,0.9,1.2,0.6,1.6c-0.1,0.2-0.3,0.3-0.5,0.3C14.2,22.4,14,22.4,13.7,22.2z M1,1.2C1,1.3,1.1,1.5,1.1,1.6c0,0,0-0.1,0-0.1
					C1.1,1.4,1.1,1.3,1,1.2L1,1.2L1,1.2L1,1.2z"/>
			</g>
		</g>
	</g>
</g>
</svg>
